<svg width="18" height="18" viewBox="0 0 18 18" fill="none" xmlns="http://www.w3.org/2000/svg">
<path d="M7.5 12.75V10.5H2.25V7.5H7.5V5.25L11.25 9L7.5 12.75ZM7.5 1.5H14.25C14.6478 1.5 15.0294 1.65804 15.3107 1.93934C15.592 2.22064 15.75 2.60218 15.75 3V15C15.75 15.3978 15.592 15.7794 15.3107 16.0607C15.0294 16.342 14.6478 16.5 14.25 16.5H7.5C7.10218 16.5 6.72064 16.342 6.43934 16.0607C6.15804 15.7794 6 15.3978 6 15V13.5H7.5V15H14.25V3H7.5V4.5H6V3C6 2.60218 6.15804 2.22064 6.43934 1.93934C6.72064 1.65804 7.10218 1.5 7.5 1.5Z" fill="black"/>
</svg>
