<svg width="44" height="33" viewBox="0 0 44 33" fill="none" xmlns="http://www.w3.org/2000/svg">
<path d="M34.1 14.4375C28.6275 14.4375 24.2 18.5883 24.2 23.7188C24.2 28.8492 28.6275 33 34.1 33C39.5725 33 44 28.8492 44 23.7188C44 18.5883 39.5725 14.4375 34.1 14.4375ZM38.5 24.1248C38.5 24.4664 38.1975 24.75 37.8331 24.75H33.6669C33.3025 24.75 33 24.4664 33 24.1248V19.1877C33 18.8461 33.3025 18.5625 33.6669 18.5625H34.5331C34.8975 18.5625 35.2 18.8461 35.2 19.1877V22.6875H37.8331C38.1975 22.6875 38.5 22.9711 38.5 23.3127V24.1248ZM22 23.7188C22 21.927 22.4606 20.2318 23.2513 18.7236C22.7013 18.627 22.1375 18.5625 21.56 18.5625H20.4119C18.8856 19.2199 17.1875 19.5938 15.4 19.5938C13.6125 19.5938 11.9213 19.2199 10.3881 18.5625H9.24C4.13875 18.5625 0 22.4426 0 27.225V29.9062C0 31.6143 1.47812 33 3.3 33H27.1631C24.0488 30.9439 22 27.5537 22 23.7188ZM15.4 16.5C20.2606 16.5 24.2 12.8068 24.2 8.25C24.2 3.69316 20.2606 0 15.4 0C10.5394 0 6.6 3.69316 6.6 8.25C6.6 12.8068 10.5394 16.5 15.4 16.5Z" fill="white"/>
</svg>
